<?xml version="1.0" standalone="no"?>
<svg xmlns="http://www.w3.org/2000/svg" version="1.1" width="258" height="258">
	<!-- Created with https://api.qrserver.com (QR Code API, see goQR.me/api for information) -->
	<title>QR Code</title>
	<desc>https://github.com/Pluscrafter/SHARKSKY/tree/Abgabe</desc>
	<rect style="fill:rgb(255, 255, 255);fill-opacity:1" x="0" y="0" width="258" height="258" />
	<g id="elements">
		<path style="fill:rgb(0, 0, 0)" d="M 6,6 l 6,0 0,6 -6,0 z M 12,6 l 6,0 0,6 -6,0 z M 18,6 l 6,0 0,6 -6,0 z M 24,6 l 6,0 0,6 -6,0 z M 30,6 l 6,0 0,6 -6,0 z M 36,6 l 6,0 0,6 -6,0 z M 42,6 l 6,0 0,6 -6,0 z M 54,6 l 6,0 0,6 -6,0 z M 84,6 l 6,0 0,6 -6,0 z M 90,6 l 6,0 0,6 -6,0 z M 102,6 l 6,0 0,6 -6,0 z M 108,6 l 6,0 0,6 -6,0 z M 126,6 l 6,0 0,6 -6,0 z M 132,6 l 6,0 0,6 -6,0 z M 138,6 l 6,0 0,6 -6,0 z M 156,6 l 6,0 0,6 -6,0 z M 174,6 l 6,0 0,6 -6,0 z M 198,6 l 6,0 0,6 -6,0 z M 210,6 l 6,0 0,6 -6,0 z M 216,6 l 6,0 0,6 -6,0 z M 222,6 l 6,0 0,6 -6,0 z M 228,6 l 6,0 0,6 -6,0 z M 234,6 l 6,0 0,6 -6,0 z M 240,6 l 6,0 0,6 -6,0 z M 246,6 l 6,0 0,6 -6,0 z M 6,12 l 6,0 0,6 -6,0 z M 42,12 l 6,0 0,6 -6,0 z M 54,12 l 6,0 0,6 -6,0 z M 60,12 l 6,0 0,6 -6,0 z M 78,12 l 6,0 0,6 -6,0 z M 84,12 l 6,0 0,6 -6,0 z M 90,12 l 6,0 0,6 -6,0 z M 96,12 l 6,0 0,6 -6,0 z M 102,12 l 6,0 0,6 -6,0 z M 126,12 l 6,0 0,6 -6,0 z M 156,12 l 6,0 0,6 -6,0 z M 162,12 l 6,0 0,6 -6,0 z M 168,12 l 6,0 0,6 -6,0 z M 174,12 l 6,0 0,6 -6,0 z M 186,12 l 6,0 0,6 -6,0 z M 210,12 l 6,0 0,6 -6,0 z M 246,12 l 6,0 0,6 -6,0 z M 6,18 l 6,0 0,6 -6,0 z M 18,18 l 6,0 0,6 -6,0 z M 24,18 l 6,0 0,6 -6,0 z M 30,18 l 6,0 0,6 -6,0 z M 42,18 l 6,0 0,6 -6,0 z M 54,18 l 6,0 0,6 -6,0 z M 66,18 l 6,0 0,6 -6,0 z M 90,18 l 6,0 0,6 -6,0 z M 102,18 l 6,0 0,6 -6,0 z M 108,18 l 6,0 0,6 -6,0 z M 114,18 l 6,0 0,6 -6,0 z M 120,18 l 6,0 0,6 -6,0 z M 126,18 l 6,0 0,6 -6,0 z M 132,18 l 6,0 0,6 -6,0 z M 144,18 l 6,0 0,6 -6,0 z M 156,18 l 6,0 0,6 -6,0 z M 168,18 l 6,0 0,6 -6,0 z M 174,18 l 6,0 0,6 -6,0 z M 192,18 l 6,0 0,6 -6,0 z M 210,18 l 6,0 0,6 -6,0 z M 222,18 l 6,0 0,6 -6,0 z M 228,18 l 6,0 0,6 -6,0 z M 234,18 l 6,0 0,6 -6,0 z M 246,18 l 6,0 0,6 -6,0 z M 6,24 l 6,0 0,6 -6,0 z M 18,24 l 6,0 0,6 -6,0 z M 24,24 l 6,0 0,6 -6,0 z M 30,24 l 6,0 0,6 -6,0 z M 42,24 l 6,0 0,6 -6,0 z M 90,24 l 6,0 0,6 -6,0 z M 102,24 l 6,0 0,6 -6,0 z M 108,24 l 6,0 0,6 -6,0 z M 120,24 l 6,0 0,6 -6,0 z M 126,24 l 6,0 0,6 -6,0 z M 132,24 l 6,0 0,6 -6,0 z M 138,24 l 6,0 0,6 -6,0 z M 144,24 l 6,0 0,6 -6,0 z M 162,24 l 6,0 0,6 -6,0 z M 168,24 l 6,0 0,6 -6,0 z M 186,24 l 6,0 0,6 -6,0 z M 210,24 l 6,0 0,6 -6,0 z M 222,24 l 6,0 0,6 -6,0 z M 228,24 l 6,0 0,6 -6,0 z M 234,24 l 6,0 0,6 -6,0 z M 246,24 l 6,0 0,6 -6,0 z M 6,30 l 6,0 0,6 -6,0 z M 18,30 l 6,0 0,6 -6,0 z M 24,30 l 6,0 0,6 -6,0 z M 30,30 l 6,0 0,6 -6,0 z M 42,30 l 6,0 0,6 -6,0 z M 72,30 l 6,0 0,6 -6,0 z M 84,30 l 6,0 0,6 -6,0 z M 102,30 l 6,0 0,6 -6,0 z M 120,30 l 6,0 0,6 -6,0 z M 126,30 l 6,0 0,6 -6,0 z M 132,30 l 6,0 0,6 -6,0 z M 144,30 l 6,0 0,6 -6,0 z M 156,30 l 6,0 0,6 -6,0 z M 174,30 l 6,0 0,6 -6,0 z M 192,30 l 6,0 0,6 -6,0 z M 198,30 l 6,0 0,6 -6,0 z M 210,30 l 6,0 0,6 -6,0 z M 222,30 l 6,0 0,6 -6,0 z M 228,30 l 6,0 0,6 -6,0 z M 234,30 l 6,0 0,6 -6,0 z M 246,30 l 6,0 0,6 -6,0 z M 6,36 l 6,0 0,6 -6,0 z M 42,36 l 6,0 0,6 -6,0 z M 54,36 l 6,0 0,6 -6,0 z M 66,36 l 6,0 0,6 -6,0 z M 78,36 l 6,0 0,6 -6,0 z M 84,36 l 6,0 0,6 -6,0 z M 96,36 l 6,0 0,6 -6,0 z M 114,36 l 6,0 0,6 -6,0 z M 120,36 l 6,0 0,6 -6,0 z M 126,36 l 6,0 0,6 -6,0 z M 132,36 l 6,0 0,6 -6,0 z M 138,36 l 6,0 0,6 -6,0 z M 150,36 l 6,0 0,6 -6,0 z M 156,36 l 6,0 0,6 -6,0 z M 162,36 l 6,0 0,6 -6,0 z M 168,36 l 6,0 0,6 -6,0 z M 180,36 l 6,0 0,6 -6,0 z M 198,36 l 6,0 0,6 -6,0 z M 210,36 l 6,0 0,6 -6,0 z M 246,36 l 6,0 0,6 -6,0 z M 6,42 l 6,0 0,6 -6,0 z M 12,42 l 6,0 0,6 -6,0 z M 18,42 l 6,0 0,6 -6,0 z M 24,42 l 6,0 0,6 -6,0 z M 30,42 l 6,0 0,6 -6,0 z M 36,42 l 6,0 0,6 -6,0 z M 42,42 l 6,0 0,6 -6,0 z M 54,42 l 6,0 0,6 -6,0 z M 66,42 l 6,0 0,6 -6,0 z M 78,42 l 6,0 0,6 -6,0 z M 90,42 l 6,0 0,6 -6,0 z M 102,42 l 6,0 0,6 -6,0 z M 114,42 l 6,0 0,6 -6,0 z M 126,42 l 6,0 0,6 -6,0 z M 138,42 l 6,0 0,6 -6,0 z M 150,42 l 6,0 0,6 -6,0 z M 162,42 l 6,0 0,6 -6,0 z M 174,42 l 6,0 0,6 -6,0 z M 186,42 l 6,0 0,6 -6,0 z M 198,42 l 6,0 0,6 -6,0 z M 210,42 l 6,0 0,6 -6,0 z M 216,42 l 6,0 0,6 -6,0 z M 222,42 l 6,0 0,6 -6,0 z M 228,42 l 6,0 0,6 -6,0 z M 234,42 l 6,0 0,6 -6,0 z M 240,42 l 6,0 0,6 -6,0 z M 246,42 l 6,0 0,6 -6,0 z M 54,48 l 6,0 0,6 -6,0 z M 66,48 l 6,0 0,6 -6,0 z M 90,48 l 6,0 0,6 -6,0 z M 108,48 l 6,0 0,6 -6,0 z M 114,48 l 6,0 0,6 -6,0 z M 120,48 l 6,0 0,6 -6,0 z M 126,48 l 6,0 0,6 -6,0 z M 132,48 l 6,0 0,6 -6,0 z M 144,48 l 6,0 0,6 -6,0 z M 156,48 l 6,0 0,6 -6,0 z M 168,48 l 6,0 0,6 -6,0 z M 174,48 l 6,0 0,6 -6,0 z M 192,48 l 6,0 0,6 -6,0 z M 18,54 l 6,0 0,6 -6,0 z M 24,54 l 6,0 0,6 -6,0 z M 30,54 l 6,0 0,6 -6,0 z M 42,54 l 6,0 0,6 -6,0 z M 54,54 l 6,0 0,6 -6,0 z M 66,54 l 6,0 0,6 -6,0 z M 72,54 l 6,0 0,6 -6,0 z M 78,54 l 6,0 0,6 -6,0 z M 90,54 l 6,0 0,6 -6,0 z M 96,54 l 6,0 0,6 -6,0 z M 108,54 l 6,0 0,6 -6,0 z M 126,54 l 6,0 0,6 -6,0 z M 132,54 l 6,0 0,6 -6,0 z M 144,54 l 6,0 0,6 -6,0 z M 150,54 l 6,0 0,6 -6,0 z M 162,54 l 6,0 0,6 -6,0 z M 168,54 l 6,0 0,6 -6,0 z M 180,54 l 6,0 0,6 -6,0 z M 204,54 l 6,0 0,6 -6,0 z M 210,54 l 6,0 0,6 -6,0 z M 216,54 l 6,0 0,6 -6,0 z M 234,54 l 6,0 0,6 -6,0 z M 240,54 l 6,0 0,6 -6,0 z M 246,54 l 6,0 0,6 -6,0 z M 6,60 l 6,0 0,6 -6,0 z M 18,60 l 6,0 0,6 -6,0 z M 30,60 l 6,0 0,6 -6,0 z M 36,60 l 6,0 0,6 -6,0 z M 54,60 l 6,0 0,6 -6,0 z M 60,60 l 6,0 0,6 -6,0 z M 90,60 l 6,0 0,6 -6,0 z M 96,60 l 6,0 0,6 -6,0 z M 102,60 l 6,0 0,6 -6,0 z M 108,60 l 6,0 0,6 -6,0 z M 114,60 l 6,0 0,6 -6,0 z M 120,60 l 6,0 0,6 -6,0 z M 126,60 l 6,0 0,6 -6,0 z M 156,60 l 6,0 0,6 -6,0 z M 174,60 l 6,0 0,6 -6,0 z M 186,60 l 6,0 0,6 -6,0 z M 192,60 l 6,0 0,6 -6,0 z M 198,60 l 6,0 0,6 -6,0 z M 210,60 l 6,0 0,6 -6,0 z M 216,60 l 6,0 0,6 -6,0 z M 234,60 l 6,0 0,6 -6,0 z M 240,60 l 6,0 0,6 -6,0 z M 6,66 l 6,0 0,6 -6,0 z M 12,66 l 6,0 0,6 -6,0 z M 18,66 l 6,0 0,6 -6,0 z M 24,66 l 6,0 0,6 -6,0 z M 36,66 l 6,0 0,6 -6,0 z M 42,66 l 6,0 0,6 -6,0 z M 60,66 l 6,0 0,6 -6,0 z M 66,66 l 6,0 0,6 -6,0 z M 84,66 l 6,0 0,6 -6,0 z M 96,66 l 6,0 0,6 -6,0 z M 102,66 l 6,0 0,6 -6,0 z M 114,66 l 6,0 0,6 -6,0 z M 120,66 l 6,0 0,6 -6,0 z M 126,66 l 6,0 0,6 -6,0 z M 138,66 l 6,0 0,6 -6,0 z M 150,66 l 6,0 0,6 -6,0 z M 162,66 l 6,0 0,6 -6,0 z M 168,66 l 6,0 0,6 -6,0 z M 174,66 l 6,0 0,6 -6,0 z M 180,66 l 6,0 0,6 -6,0 z M 186,66 l 6,0 0,6 -6,0 z M 198,66 l 6,0 0,6 -6,0 z M 204,66 l 6,0 0,6 -6,0 z M 222,66 l 6,0 0,6 -6,0 z M 12,72 l 6,0 0,6 -6,0 z M 24,72 l 6,0 0,6 -6,0 z M 30,72 l 6,0 0,6 -6,0 z M 48,72 l 6,0 0,6 -6,0 z M 60,72 l 6,0 0,6 -6,0 z M 78,72 l 6,0 0,6 -6,0 z M 84,72 l 6,0 0,6 -6,0 z M 90,72 l 6,0 0,6 -6,0 z M 102,72 l 6,0 0,6 -6,0 z M 108,72 l 6,0 0,6 -6,0 z M 114,72 l 6,0 0,6 -6,0 z M 126,72 l 6,0 0,6 -6,0 z M 150,72 l 6,0 0,6 -6,0 z M 156,72 l 6,0 0,6 -6,0 z M 162,72 l 6,0 0,6 -6,0 z M 168,72 l 6,0 0,6 -6,0 z M 174,72 l 6,0 0,6 -6,0 z M 192,72 l 6,0 0,6 -6,0 z M 198,72 l 6,0 0,6 -6,0 z M 222,72 l 6,0 0,6 -6,0 z M 228,72 l 6,0 0,6 -6,0 z M 246,72 l 6,0 0,6 -6,0 z M 18,78 l 6,0 0,6 -6,0 z M 24,78 l 6,0 0,6 -6,0 z M 36,78 l 6,0 0,6 -6,0 z M 42,78 l 6,0 0,6 -6,0 z M 48,78 l 6,0 0,6 -6,0 z M 54,78 l 6,0 0,6 -6,0 z M 72,78 l 6,0 0,6 -6,0 z M 84,78 l 6,0 0,6 -6,0 z M 96,78 l 6,0 0,6 -6,0 z M 114,78 l 6,0 0,6 -6,0 z M 126,78 l 6,0 0,6 -6,0 z M 138,78 l 6,0 0,6 -6,0 z M 144,78 l 6,0 0,6 -6,0 z M 150,78 l 6,0 0,6 -6,0 z M 156,78 l 6,0 0,6 -6,0 z M 162,78 l 6,0 0,6 -6,0 z M 168,78 l 6,0 0,6 -6,0 z M 174,78 l 6,0 0,6 -6,0 z M 180,78 l 6,0 0,6 -6,0 z M 192,78 l 6,0 0,6 -6,0 z M 216,78 l 6,0 0,6 -6,0 z M 222,78 l 6,0 0,6 -6,0 z M 228,78 l 6,0 0,6 -6,0 z M 234,78 l 6,0 0,6 -6,0 z M 246,78 l 6,0 0,6 -6,0 z M 6,84 l 6,0 0,6 -6,0 z M 12,84 l 6,0 0,6 -6,0 z M 18,84 l 6,0 0,6 -6,0 z M 24,84 l 6,0 0,6 -6,0 z M 36,84 l 6,0 0,6 -6,0 z M 48,84 l 6,0 0,6 -6,0 z M 54,84 l 6,0 0,6 -6,0 z M 60,84 l 6,0 0,6 -6,0 z M 66,84 l 6,0 0,6 -6,0 z M 72,84 l 6,0 0,6 -6,0 z M 84,84 l 6,0 0,6 -6,0 z M 90,84 l 6,0 0,6 -6,0 z M 102,84 l 6,0 0,6 -6,0 z M 108,84 l 6,0 0,6 -6,0 z M 132,84 l 6,0 0,6 -6,0 z M 138,84 l 6,0 0,6 -6,0 z M 150,84 l 6,0 0,6 -6,0 z M 168,84 l 6,0 0,6 -6,0 z M 198,84 l 6,0 0,6 -6,0 z M 204,84 l 6,0 0,6 -6,0 z M 210,84 l 6,0 0,6 -6,0 z M 216,84 l 6,0 0,6 -6,0 z M 222,84 l 6,0 0,6 -6,0 z M 240,84 l 6,0 0,6 -6,0 z M 246,84 l 6,0 0,6 -6,0 z M 6,90 l 6,0 0,6 -6,0 z M 18,90 l 6,0 0,6 -6,0 z M 24,90 l 6,0 0,6 -6,0 z M 30,90 l 6,0 0,6 -6,0 z M 36,90 l 6,0 0,6 -6,0 z M 42,90 l 6,0 0,6 -6,0 z M 54,90 l 6,0 0,6 -6,0 z M 66,90 l 6,0 0,6 -6,0 z M 78,90 l 6,0 0,6 -6,0 z M 84,90 l 6,0 0,6 -6,0 z M 90,90 l 6,0 0,6 -6,0 z M 114,90 l 6,0 0,6 -6,0 z M 132,90 l 6,0 0,6 -6,0 z M 150,90 l 6,0 0,6 -6,0 z M 168,90 l 6,0 0,6 -6,0 z M 174,90 l 6,0 0,6 -6,0 z M 192,90 l 6,0 0,6 -6,0 z M 204,90 l 6,0 0,6 -6,0 z M 216,90 l 6,0 0,6 -6,0 z M 228,90 l 6,0 0,6 -6,0 z M 234,90 l 6,0 0,6 -6,0 z M 240,90 l 6,0 0,6 -6,0 z M 30,96 l 6,0 0,6 -6,0 z M 54,96 l 6,0 0,6 -6,0 z M 72,96 l 6,0 0,6 -6,0 z M 78,96 l 6,0 0,6 -6,0 z M 90,96 l 6,0 0,6 -6,0 z M 96,96 l 6,0 0,6 -6,0 z M 102,96 l 6,0 0,6 -6,0 z M 120,96 l 6,0 0,6 -6,0 z M 132,96 l 6,0 0,6 -6,0 z M 138,96 l 6,0 0,6 -6,0 z M 150,96 l 6,0 0,6 -6,0 z M 162,96 l 6,0 0,6 -6,0 z M 168,96 l 6,0 0,6 -6,0 z M 186,96 l 6,0 0,6 -6,0 z M 192,96 l 6,0 0,6 -6,0 z M 198,96 l 6,0 0,6 -6,0 z M 210,96 l 6,0 0,6 -6,0 z M 216,96 l 6,0 0,6 -6,0 z M 228,96 l 6,0 0,6 -6,0 z M 240,96 l 6,0 0,6 -6,0 z M 246,96 l 6,0 0,6 -6,0 z M 18,102 l 6,0 0,6 -6,0 z M 30,102 l 6,0 0,6 -6,0 z M 42,102 l 6,0 0,6 -6,0 z M 54,102 l 6,0 0,6 -6,0 z M 60,102 l 6,0 0,6 -6,0 z M 84,102 l 6,0 0,6 -6,0 z M 90,102 l 6,0 0,6 -6,0 z M 108,102 l 6,0 0,6 -6,0 z M 120,102 l 6,0 0,6 -6,0 z M 126,102 l 6,0 0,6 -6,0 z M 132,102 l 6,0 0,6 -6,0 z M 150,102 l 6,0 0,6 -6,0 z M 156,102 l 6,0 0,6 -6,0 z M 168,102 l 6,0 0,6 -6,0 z M 186,102 l 6,0 0,6 -6,0 z M 192,102 l 6,0 0,6 -6,0 z M 204,102 l 6,0 0,6 -6,0 z M 216,102 l 6,0 0,6 -6,0 z M 234,102 l 6,0 0,6 -6,0 z M 240,102 l 6,0 0,6 -6,0 z M 18,108 l 6,0 0,6 -6,0 z M 24,108 l 6,0 0,6 -6,0 z M 30,108 l 6,0 0,6 -6,0 z M 36,108 l 6,0 0,6 -6,0 z M 60,108 l 6,0 0,6 -6,0 z M 66,108 l 6,0 0,6 -6,0 z M 72,108 l 6,0 0,6 -6,0 z M 90,108 l 6,0 0,6 -6,0 z M 96,108 l 6,0 0,6 -6,0 z M 108,108 l 6,0 0,6 -6,0 z M 132,108 l 6,0 0,6 -6,0 z M 174,108 l 6,0 0,6 -6,0 z M 180,108 l 6,0 0,6 -6,0 z M 186,108 l 6,0 0,6 -6,0 z M 192,108 l 6,0 0,6 -6,0 z M 198,108 l 6,0 0,6 -6,0 z M 210,108 l 6,0 0,6 -6,0 z M 216,108 l 6,0 0,6 -6,0 z M 222,108 l 6,0 0,6 -6,0 z M 240,108 l 6,0 0,6 -6,0 z M 246,108 l 6,0 0,6 -6,0 z M 36,114 l 6,0 0,6 -6,0 z M 42,114 l 6,0 0,6 -6,0 z M 48,114 l 6,0 0,6 -6,0 z M 54,114 l 6,0 0,6 -6,0 z M 60,114 l 6,0 0,6 -6,0 z M 78,114 l 6,0 0,6 -6,0 z M 84,114 l 6,0 0,6 -6,0 z M 90,114 l 6,0 0,6 -6,0 z M 96,114 l 6,0 0,6 -6,0 z M 102,114 l 6,0 0,6 -6,0 z M 126,114 l 6,0 0,6 -6,0 z M 138,114 l 6,0 0,6 -6,0 z M 144,114 l 6,0 0,6 -6,0 z M 150,114 l 6,0 0,6 -6,0 z M 156,114 l 6,0 0,6 -6,0 z M 162,114 l 6,0 0,6 -6,0 z M 168,114 l 6,0 0,6 -6,0 z M 180,114 l 6,0 0,6 -6,0 z M 204,114 l 6,0 0,6 -6,0 z M 222,114 l 6,0 0,6 -6,0 z M 12,120 l 6,0 0,6 -6,0 z M 24,120 l 6,0 0,6 -6,0 z M 54,120 l 6,0 0,6 -6,0 z M 66,120 l 6,0 0,6 -6,0 z M 72,120 l 6,0 0,6 -6,0 z M 90,120 l 6,0 0,6 -6,0 z M 96,120 l 6,0 0,6 -6,0 z M 132,120 l 6,0 0,6 -6,0 z M 138,120 l 6,0 0,6 -6,0 z M 150,120 l 6,0 0,6 -6,0 z M 156,120 l 6,0 0,6 -6,0 z M 162,120 l 6,0 0,6 -6,0 z M 180,120 l 6,0 0,6 -6,0 z M 186,120 l 6,0 0,6 -6,0 z M 204,120 l 6,0 0,6 -6,0 z M 222,120 l 6,0 0,6 -6,0 z M 228,120 l 6,0 0,6 -6,0 z M 240,120 l 6,0 0,6 -6,0 z M 246,120 l 6,0 0,6 -6,0 z M 6,126 l 6,0 0,6 -6,0 z M 12,126 l 6,0 0,6 -6,0 z M 18,126 l 6,0 0,6 -6,0 z M 24,126 l 6,0 0,6 -6,0 z M 42,126 l 6,0 0,6 -6,0 z M 60,126 l 6,0 0,6 -6,0 z M 66,126 l 6,0 0,6 -6,0 z M 78,126 l 6,0 0,6 -6,0 z M 108,126 l 6,0 0,6 -6,0 z M 132,126 l 6,0 0,6 -6,0 z M 138,126 l 6,0 0,6 -6,0 z M 156,126 l 6,0 0,6 -6,0 z M 168,126 l 6,0 0,6 -6,0 z M 174,126 l 6,0 0,6 -6,0 z M 198,126 l 6,0 0,6 -6,0 z M 228,126 l 6,0 0,6 -6,0 z M 246,126 l 6,0 0,6 -6,0 z M 6,132 l 6,0 0,6 -6,0 z M 12,132 l 6,0 0,6 -6,0 z M 30,132 l 6,0 0,6 -6,0 z M 36,132 l 6,0 0,6 -6,0 z M 54,132 l 6,0 0,6 -6,0 z M 66,132 l 6,0 0,6 -6,0 z M 78,132 l 6,0 0,6 -6,0 z M 108,132 l 6,0 0,6 -6,0 z M 120,132 l 6,0 0,6 -6,0 z M 126,132 l 6,0 0,6 -6,0 z M 132,132 l 6,0 0,6 -6,0 z M 138,132 l 6,0 0,6 -6,0 z M 156,132 l 6,0 0,6 -6,0 z M 174,132 l 6,0 0,6 -6,0 z M 180,132 l 6,0 0,6 -6,0 z M 186,132 l 6,0 0,6 -6,0 z M 192,132 l 6,0 0,6 -6,0 z M 198,132 l 6,0 0,6 -6,0 z M 204,132 l 6,0 0,6 -6,0 z M 210,132 l 6,0 0,6 -6,0 z M 216,132 l 6,0 0,6 -6,0 z M 222,132 l 6,0 0,6 -6,0 z M 240,132 l 6,0 0,6 -6,0 z M 246,132 l 6,0 0,6 -6,0 z M 12,138 l 6,0 0,6 -6,0 z M 24,138 l 6,0 0,6 -6,0 z M 42,138 l 6,0 0,6 -6,0 z M 48,138 l 6,0 0,6 -6,0 z M 54,138 l 6,0 0,6 -6,0 z M 60,138 l 6,0 0,6 -6,0 z M 78,138 l 6,0 0,6 -6,0 z M 90,138 l 6,0 0,6 -6,0 z M 102,138 l 6,0 0,6 -6,0 z M 108,138 l 6,0 0,6 -6,0 z M 120,138 l 6,0 0,6 -6,0 z M 126,138 l 6,0 0,6 -6,0 z M 156,138 l 6,0 0,6 -6,0 z M 162,138 l 6,0 0,6 -6,0 z M 168,138 l 6,0 0,6 -6,0 z M 186,138 l 6,0 0,6 -6,0 z M 198,138 l 6,0 0,6 -6,0 z M 204,138 l 6,0 0,6 -6,0 z M 216,138 l 6,0 0,6 -6,0 z M 228,138 l 6,0 0,6 -6,0 z M 6,144 l 6,0 0,6 -6,0 z M 30,144 l 6,0 0,6 -6,0 z M 36,144 l 6,0 0,6 -6,0 z M 48,144 l 6,0 0,6 -6,0 z M 78,144 l 6,0 0,6 -6,0 z M 90,144 l 6,0 0,6 -6,0 z M 96,144 l 6,0 0,6 -6,0 z M 126,144 l 6,0 0,6 -6,0 z M 132,144 l 6,0 0,6 -6,0 z M 150,144 l 6,0 0,6 -6,0 z M 156,144 l 6,0 0,6 -6,0 z M 174,144 l 6,0 0,6 -6,0 z M 198,144 l 6,0 0,6 -6,0 z M 210,144 l 6,0 0,6 -6,0 z M 216,144 l 6,0 0,6 -6,0 z M 222,144 l 6,0 0,6 -6,0 z M 228,144 l 6,0 0,6 -6,0 z M 240,144 l 6,0 0,6 -6,0 z M 246,144 l 6,0 0,6 -6,0 z M 12,150 l 6,0 0,6 -6,0 z M 30,150 l 6,0 0,6 -6,0 z M 42,150 l 6,0 0,6 -6,0 z M 48,150 l 6,0 0,6 -6,0 z M 72,150 l 6,0 0,6 -6,0 z M 78,150 l 6,0 0,6 -6,0 z M 84,150 l 6,0 0,6 -6,0 z M 96,150 l 6,0 0,6 -6,0 z M 102,150 l 6,0 0,6 -6,0 z M 108,150 l 6,0 0,6 -6,0 z M 114,150 l 6,0 0,6 -6,0 z M 126,150 l 6,0 0,6 -6,0 z M 132,150 l 6,0 0,6 -6,0 z M 162,150 l 6,0 0,6 -6,0 z M 168,150 l 6,0 0,6 -6,0 z M 174,150 l 6,0 0,6 -6,0 z M 180,150 l 6,0 0,6 -6,0 z M 234,150 l 6,0 0,6 -6,0 z M 246,150 l 6,0 0,6 -6,0 z M 6,156 l 6,0 0,6 -6,0 z M 18,156 l 6,0 0,6 -6,0 z M 24,156 l 6,0 0,6 -6,0 z M 30,156 l 6,0 0,6 -6,0 z M 36,156 l 6,0 0,6 -6,0 z M 60,156 l 6,0 0,6 -6,0 z M 66,156 l 6,0 0,6 -6,0 z M 78,156 l 6,0 0,6 -6,0 z M 90,156 l 6,0 0,6 -6,0 z M 96,156 l 6,0 0,6 -6,0 z M 102,156 l 6,0 0,6 -6,0 z M 108,156 l 6,0 0,6 -6,0 z M 114,156 l 6,0 0,6 -6,0 z M 120,156 l 6,0 0,6 -6,0 z M 126,156 l 6,0 0,6 -6,0 z M 144,156 l 6,0 0,6 -6,0 z M 162,156 l 6,0 0,6 -6,0 z M 174,156 l 6,0 0,6 -6,0 z M 192,156 l 6,0 0,6 -6,0 z M 204,156 l 6,0 0,6 -6,0 z M 216,156 l 6,0 0,6 -6,0 z M 222,156 l 6,0 0,6 -6,0 z M 228,156 l 6,0 0,6 -6,0 z M 240,156 l 6,0 0,6 -6,0 z M 246,156 l 6,0 0,6 -6,0 z M 12,162 l 6,0 0,6 -6,0 z M 42,162 l 6,0 0,6 -6,0 z M 48,162 l 6,0 0,6 -6,0 z M 60,162 l 6,0 0,6 -6,0 z M 66,162 l 6,0 0,6 -6,0 z M 78,162 l 6,0 0,6 -6,0 z M 84,162 l 6,0 0,6 -6,0 z M 96,162 l 6,0 0,6 -6,0 z M 114,162 l 6,0 0,6 -6,0 z M 120,162 l 6,0 0,6 -6,0 z M 138,162 l 6,0 0,6 -6,0 z M 144,162 l 6,0 0,6 -6,0 z M 156,162 l 6,0 0,6 -6,0 z M 168,162 l 6,0 0,6 -6,0 z M 180,162 l 6,0 0,6 -6,0 z M 186,162 l 6,0 0,6 -6,0 z M 198,162 l 6,0 0,6 -6,0 z M 204,162 l 6,0 0,6 -6,0 z M 216,162 l 6,0 0,6 -6,0 z M 240,162 l 6,0 0,6 -6,0 z M 18,168 l 6,0 0,6 -6,0 z M 24,168 l 6,0 0,6 -6,0 z M 48,168 l 6,0 0,6 -6,0 z M 72,168 l 6,0 0,6 -6,0 z M 84,168 l 6,0 0,6 -6,0 z M 90,168 l 6,0 0,6 -6,0 z M 96,168 l 6,0 0,6 -6,0 z M 102,168 l 6,0 0,6 -6,0 z M 114,168 l 6,0 0,6 -6,0 z M 120,168 l 6,0 0,6 -6,0 z M 132,168 l 6,0 0,6 -6,0 z M 144,168 l 6,0 0,6 -6,0 z M 150,168 l 6,0 0,6 -6,0 z M 156,168 l 6,0 0,6 -6,0 z M 162,168 l 6,0 0,6 -6,0 z M 168,168 l 6,0 0,6 -6,0 z M 186,168 l 6,0 0,6 -6,0 z M 192,168 l 6,0 0,6 -6,0 z M 198,168 l 6,0 0,6 -6,0 z M 204,168 l 6,0 0,6 -6,0 z M 210,168 l 6,0 0,6 -6,0 z M 228,168 l 6,0 0,6 -6,0 z M 12,174 l 6,0 0,6 -6,0 z M 18,174 l 6,0 0,6 -6,0 z M 24,174 l 6,0 0,6 -6,0 z M 30,174 l 6,0 0,6 -6,0 z M 42,174 l 6,0 0,6 -6,0 z M 60,174 l 6,0 0,6 -6,0 z M 78,174 l 6,0 0,6 -6,0 z M 84,174 l 6,0 0,6 -6,0 z M 90,174 l 6,0 0,6 -6,0 z M 108,174 l 6,0 0,6 -6,0 z M 114,174 l 6,0 0,6 -6,0 z M 120,174 l 6,0 0,6 -6,0 z M 132,174 l 6,0 0,6 -6,0 z M 144,174 l 6,0 0,6 -6,0 z M 162,174 l 6,0 0,6 -6,0 z M 180,174 l 6,0 0,6 -6,0 z M 192,174 l 6,0 0,6 -6,0 z M 228,174 l 6,0 0,6 -6,0 z M 234,174 l 6,0 0,6 -6,0 z M 6,180 l 6,0 0,6 -6,0 z M 24,180 l 6,0 0,6 -6,0 z M 60,180 l 6,0 0,6 -6,0 z M 66,180 l 6,0 0,6 -6,0 z M 72,180 l 6,0 0,6 -6,0 z M 78,180 l 6,0 0,6 -6,0 z M 114,180 l 6,0 0,6 -6,0 z M 132,180 l 6,0 0,6 -6,0 z M 144,180 l 6,0 0,6 -6,0 z M 150,180 l 6,0 0,6 -6,0 z M 156,180 l 6,0 0,6 -6,0 z M 168,180 l 6,0 0,6 -6,0 z M 174,180 l 6,0 0,6 -6,0 z M 180,180 l 6,0 0,6 -6,0 z M 186,180 l 6,0 0,6 -6,0 z M 204,180 l 6,0 0,6 -6,0 z M 210,180 l 6,0 0,6 -6,0 z M 222,180 l 6,0 0,6 -6,0 z M 228,180 l 6,0 0,6 -6,0 z M 234,180 l 6,0 0,6 -6,0 z M 246,180 l 6,0 0,6 -6,0 z M 6,186 l 6,0 0,6 -6,0 z M 24,186 l 6,0 0,6 -6,0 z M 36,186 l 6,0 0,6 -6,0 z M 42,186 l 6,0 0,6 -6,0 z M 48,186 l 6,0 0,6 -6,0 z M 78,186 l 6,0 0,6 -6,0 z M 84,186 l 6,0 0,6 -6,0 z M 90,186 l 6,0 0,6 -6,0 z M 108,186 l 6,0 0,6 -6,0 z M 120,186 l 6,0 0,6 -6,0 z M 132,186 l 6,0 0,6 -6,0 z M 150,186 l 6,0 0,6 -6,0 z M 180,186 l 6,0 0,6 -6,0 z M 186,186 l 6,0 0,6 -6,0 z M 198,186 l 6,0 0,6 -6,0 z M 204,186 l 6,0 0,6 -6,0 z M 210,186 l 6,0 0,6 -6,0 z M 216,186 l 6,0 0,6 -6,0 z M 222,186 l 6,0 0,6 -6,0 z M 228,186 l 6,0 0,6 -6,0 z M 234,186 l 6,0 0,6 -6,0 z M 6,192 l 6,0 0,6 -6,0 z M 30,192 l 6,0 0,6 -6,0 z M 54,192 l 6,0 0,6 -6,0 z M 66,192 l 6,0 0,6 -6,0 z M 90,192 l 6,0 0,6 -6,0 z M 102,192 l 6,0 0,6 -6,0 z M 120,192 l 6,0 0,6 -6,0 z M 126,192 l 6,0 0,6 -6,0 z M 132,192 l 6,0 0,6 -6,0 z M 144,192 l 6,0 0,6 -6,0 z M 150,192 l 6,0 0,6 -6,0 z M 156,192 l 6,0 0,6 -6,0 z M 162,192 l 6,0 0,6 -6,0 z M 174,192 l 6,0 0,6 -6,0 z M 198,192 l 6,0 0,6 -6,0 z M 204,192 l 6,0 0,6 -6,0 z M 210,192 l 6,0 0,6 -6,0 z M 216,192 l 6,0 0,6 -6,0 z M 228,192 l 6,0 0,6 -6,0 z M 6,198 l 6,0 0,6 -6,0 z M 18,198 l 6,0 0,6 -6,0 z M 30,198 l 6,0 0,6 -6,0 z M 36,198 l 6,0 0,6 -6,0 z M 42,198 l 6,0 0,6 -6,0 z M 66,198 l 6,0 0,6 -6,0 z M 78,198 l 6,0 0,6 -6,0 z M 84,198 l 6,0 0,6 -6,0 z M 96,198 l 6,0 0,6 -6,0 z M 120,198 l 6,0 0,6 -6,0 z M 126,198 l 6,0 0,6 -6,0 z M 132,198 l 6,0 0,6 -6,0 z M 138,198 l 6,0 0,6 -6,0 z M 156,198 l 6,0 0,6 -6,0 z M 162,198 l 6,0 0,6 -6,0 z M 174,198 l 6,0 0,6 -6,0 z M 180,198 l 6,0 0,6 -6,0 z M 198,198 l 6,0 0,6 -6,0 z M 204,198 l 6,0 0,6 -6,0 z M 210,198 l 6,0 0,6 -6,0 z M 216,198 l 6,0 0,6 -6,0 z M 222,198 l 6,0 0,6 -6,0 z M 234,198 l 6,0 0,6 -6,0 z M 54,204 l 6,0 0,6 -6,0 z M 66,204 l 6,0 0,6 -6,0 z M 78,204 l 6,0 0,6 -6,0 z M 108,204 l 6,0 0,6 -6,0 z M 114,204 l 6,0 0,6 -6,0 z M 120,204 l 6,0 0,6 -6,0 z M 126,204 l 6,0 0,6 -6,0 z M 174,204 l 6,0 0,6 -6,0 z M 198,204 l 6,0 0,6 -6,0 z M 222,204 l 6,0 0,6 -6,0 z M 228,204 l 6,0 0,6 -6,0 z M 240,204 l 6,0 0,6 -6,0 z M 246,204 l 6,0 0,6 -6,0 z M 6,210 l 6,0 0,6 -6,0 z M 12,210 l 6,0 0,6 -6,0 z M 18,210 l 6,0 0,6 -6,0 z M 24,210 l 6,0 0,6 -6,0 z M 30,210 l 6,0 0,6 -6,0 z M 36,210 l 6,0 0,6 -6,0 z M 42,210 l 6,0 0,6 -6,0 z M 78,210 l 6,0 0,6 -6,0 z M 90,210 l 6,0 0,6 -6,0 z M 102,210 l 6,0 0,6 -6,0 z M 108,210 l 6,0 0,6 -6,0 z M 114,210 l 6,0 0,6 -6,0 z M 120,210 l 6,0 0,6 -6,0 z M 132,210 l 6,0 0,6 -6,0 z M 138,210 l 6,0 0,6 -6,0 z M 150,210 l 6,0 0,6 -6,0 z M 168,210 l 6,0 0,6 -6,0 z M 186,210 l 6,0 0,6 -6,0 z M 198,210 l 6,0 0,6 -6,0 z M 210,210 l 6,0 0,6 -6,0 z M 222,210 l 6,0 0,6 -6,0 z M 228,210 l 6,0 0,6 -6,0 z M 234,210 l 6,0 0,6 -6,0 z M 240,210 l 6,0 0,6 -6,0 z M 6,216 l 6,0 0,6 -6,0 z M 42,216 l 6,0 0,6 -6,0 z M 60,216 l 6,0 0,6 -6,0 z M 66,216 l 6,0 0,6 -6,0 z M 90,216 l 6,0 0,6 -6,0 z M 96,216 l 6,0 0,6 -6,0 z M 126,216 l 6,0 0,6 -6,0 z M 144,216 l 6,0 0,6 -6,0 z M 150,216 l 6,0 0,6 -6,0 z M 162,216 l 6,0 0,6 -6,0 z M 168,216 l 6,0 0,6 -6,0 z M 174,216 l 6,0 0,6 -6,0 z M 198,216 l 6,0 0,6 -6,0 z M 222,216 l 6,0 0,6 -6,0 z M 234,216 l 6,0 0,6 -6,0 z M 240,216 l 6,0 0,6 -6,0 z M 246,216 l 6,0 0,6 -6,0 z M 6,222 l 6,0 0,6 -6,0 z M 18,222 l 6,0 0,6 -6,0 z M 24,222 l 6,0 0,6 -6,0 z M 30,222 l 6,0 0,6 -6,0 z M 42,222 l 6,0 0,6 -6,0 z M 54,222 l 6,0 0,6 -6,0 z M 60,222 l 6,0 0,6 -6,0 z M 66,222 l 6,0 0,6 -6,0 z M 84,222 l 6,0 0,6 -6,0 z M 102,222 l 6,0 0,6 -6,0 z M 108,222 l 6,0 0,6 -6,0 z M 120,222 l 6,0 0,6 -6,0 z M 126,222 l 6,0 0,6 -6,0 z M 132,222 l 6,0 0,6 -6,0 z M 168,222 l 6,0 0,6 -6,0 z M 186,222 l 6,0 0,6 -6,0 z M 192,222 l 6,0 0,6 -6,0 z M 198,222 l 6,0 0,6 -6,0 z M 204,222 l 6,0 0,6 -6,0 z M 210,222 l 6,0 0,6 -6,0 z M 216,222 l 6,0 0,6 -6,0 z M 222,222 l 6,0 0,6 -6,0 z M 234,222 l 6,0 0,6 -6,0 z M 240,222 l 6,0 0,6 -6,0 z M 6,228 l 6,0 0,6 -6,0 z M 18,228 l 6,0 0,6 -6,0 z M 24,228 l 6,0 0,6 -6,0 z M 30,228 l 6,0 0,6 -6,0 z M 42,228 l 6,0 0,6 -6,0 z M 54,228 l 6,0 0,6 -6,0 z M 60,228 l 6,0 0,6 -6,0 z M 72,228 l 6,0 0,6 -6,0 z M 78,228 l 6,0 0,6 -6,0 z M 114,228 l 6,0 0,6 -6,0 z M 120,228 l 6,0 0,6 -6,0 z M 132,228 l 6,0 0,6 -6,0 z M 144,228 l 6,0 0,6 -6,0 z M 156,228 l 6,0 0,6 -6,0 z M 174,228 l 6,0 0,6 -6,0 z M 198,228 l 6,0 0,6 -6,0 z M 204,228 l 6,0 0,6 -6,0 z M 216,228 l 6,0 0,6 -6,0 z M 6,234 l 6,0 0,6 -6,0 z M 18,234 l 6,0 0,6 -6,0 z M 24,234 l 6,0 0,6 -6,0 z M 30,234 l 6,0 0,6 -6,0 z M 42,234 l 6,0 0,6 -6,0 z M 54,234 l 6,0 0,6 -6,0 z M 60,234 l 6,0 0,6 -6,0 z M 108,234 l 6,0 0,6 -6,0 z M 114,234 l 6,0 0,6 -6,0 z M 126,234 l 6,0 0,6 -6,0 z M 132,234 l 6,0 0,6 -6,0 z M 138,234 l 6,0 0,6 -6,0 z M 150,234 l 6,0 0,6 -6,0 z M 162,234 l 6,0 0,6 -6,0 z M 168,234 l 6,0 0,6 -6,0 z M 174,234 l 6,0 0,6 -6,0 z M 192,234 l 6,0 0,6 -6,0 z M 198,234 l 6,0 0,6 -6,0 z M 204,234 l 6,0 0,6 -6,0 z M 210,234 l 6,0 0,6 -6,0 z M 216,234 l 6,0 0,6 -6,0 z M 222,234 l 6,0 0,6 -6,0 z M 234,234 l 6,0 0,6 -6,0 z M 240,234 l 6,0 0,6 -6,0 z M 6,240 l 6,0 0,6 -6,0 z M 42,240 l 6,0 0,6 -6,0 z M 102,240 l 6,0 0,6 -6,0 z M 114,240 l 6,0 0,6 -6,0 z M 126,240 l 6,0 0,6 -6,0 z M 132,240 l 6,0 0,6 -6,0 z M 138,240 l 6,0 0,6 -6,0 z M 144,240 l 6,0 0,6 -6,0 z M 156,240 l 6,0 0,6 -6,0 z M 162,240 l 6,0 0,6 -6,0 z M 168,240 l 6,0 0,6 -6,0 z M 186,240 l 6,0 0,6 -6,0 z M 192,240 l 6,0 0,6 -6,0 z M 198,240 l 6,0 0,6 -6,0 z M 210,240 l 6,0 0,6 -6,0 z M 222,240 l 6,0 0,6 -6,0 z M 228,240 l 6,0 0,6 -6,0 z M 240,240 l 6,0 0,6 -6,0 z M 6,246 l 6,0 0,6 -6,0 z M 12,246 l 6,0 0,6 -6,0 z M 18,246 l 6,0 0,6 -6,0 z M 24,246 l 6,0 0,6 -6,0 z M 30,246 l 6,0 0,6 -6,0 z M 36,246 l 6,0 0,6 -6,0 z M 42,246 l 6,0 0,6 -6,0 z M 66,246 l 6,0 0,6 -6,0 z M 72,246 l 6,0 0,6 -6,0 z M 78,246 l 6,0 0,6 -6,0 z M 90,246 l 6,0 0,6 -6,0 z M 96,246 l 6,0 0,6 -6,0 z M 114,246 l 6,0 0,6 -6,0 z M 120,246 l 6,0 0,6 -6,0 z M 126,246 l 6,0 0,6 -6,0 z M 138,246 l 6,0 0,6 -6,0 z M 144,246 l 6,0 0,6 -6,0 z M 162,246 l 6,0 0,6 -6,0 z M 168,246 l 6,0 0,6 -6,0 z M 180,246 l 6,0 0,6 -6,0 z M 192,246 l 6,0 0,6 -6,0 z M 204,246 l 6,0 0,6 -6,0 z M 216,246 l 6,0 0,6 -6,0 z M 222,246 l 6,0 0,6 -6,0 z M 234,246 l 6,0 0,6 -6,0 z " />
	</g>
</svg>
