M48
;GenerationSoftware,Autodesk,EAGLE,9.3.2*%
;CreationDate,2019-04-15T12:53:51Z*%
FMAT,2
ICI,OFF
METRIC,TZ,000.000
T6C0.203
T5C0.254
T4C0.300
T3C0.350
T2C0.900
T1C1.016
%
G90
M71
T1
X45720Y41910
X43180Y41910
X40640Y41910
X38100Y41910
X35560Y41910
X48260Y44450
X45720Y44450
X43180Y44450
X-1270Y73660
X-3810Y78740
X-3810Y76200
X-3810Y73660
X3810Y99060
X3810Y96520
X3810Y93980
X1270Y99060
X29210Y45720
X29210Y50800
X1270Y96520
X1270Y93980
X-1270Y99060
X-1270Y96520
X-1270Y93980
X-3810Y99060
X-3810Y96520
X-3810Y93980
X46990Y96520
X44450Y96520
X41910Y96520
X39370Y96520
X46990Y99060
X40640Y44450
X44450Y99060
X41910Y99060
X39370Y99060
X31750Y99060
X29210Y99060
X38100Y44450
X26670Y99060
X35560Y44450
X1270Y73660
X48260Y54610
X48260Y46990
X1270Y76200
X1270Y78740
X46482Y67183
X46482Y64643
X46482Y62103
X27940Y91440
X25400Y91440
X22860Y91440
X20320Y91440
X17780Y91440
X15240Y91440
X12700Y91440
X10160Y91440
X45720Y46990
X43180Y46990
X40640Y46990
X38100Y46990
X35560Y46990
X48260Y49530
X45720Y49530
X43180Y49530
X40640Y49530
X38100Y49530
X35560Y49530
X31750Y53340
X31750Y50800
X31750Y48260
X31750Y45720
X29210Y53340
X29210Y48260
X48260Y52070
X45720Y52070
X43180Y52070
X40640Y52070
X38100Y52070
X35560Y52070
X45720Y54610
X43180Y54610
X40640Y54610
X38100Y54610
X35560Y54610
X48260Y57150
X45720Y57150
X43180Y57150
X40640Y57150
X38100Y57150
X35560Y57150
X20320Y96520
X17780Y96520
X15240Y96520
X12700Y96520
X53340Y86360
X53340Y88900
X53340Y91440
X53340Y93980
X53340Y96520
X53340Y99060
X1270Y82550
X-1270Y82550
X-3810Y82550
X1270Y85090
X-1270Y85090
X-3810Y85090
X1270Y87630
X-1270Y87630
X-3810Y87630
X20320Y99060
X17780Y99060
X15240Y99060
X12700Y99060
X-1270Y78740
X-1270Y76200
X48260Y41910
X26670Y96520
X29210Y96520
X31750Y96520
X8255Y96520
X8255Y99060
T2
X53340Y62230
X50800Y62230
X50800Y67310
X53340Y67310
X53340Y64770
X50800Y64770
T3
X51562Y71374
X54079Y71120
X46990Y87630
X18542Y94511
X28194Y93980
X28679Y89662
X31496Y86106
X32512Y84582
X30988Y83058
X20320Y68326
X21590Y69596
X15113Y70485
X33274Y72898
X35687Y71374
X30480Y70993
X34313Y68199
X34925Y66221
X38608Y83693
X21844Y43180
X48641Y62103
X18542Y51308
X24257Y50800
X26289Y50800
X18161Y60198
X20320Y59690
X9525Y49403
X7493Y49657
X23289Y62611
X7239Y55372
X9906Y60325
X26543Y42164
X44704Y75664
X9398Y46736
X12446Y43688
X18511Y89947
X51308Y87884
X18383Y57372
X17526Y52324
X16002Y51689
X16256Y42418
X48641Y78486
X48895Y74803
X49276Y71120
X9144Y51054
X14986Y49022
X14478Y43434
X11938Y45189
X45446Y80498
X16256Y50038
X27686Y55626
X30226Y56896
X12446Y76708
X4318Y79502
X8382Y69342
X23876Y74930
X31242Y77470
T4
X40386Y84074
X44831Y90777
T5
X32461Y60909
X49149Y60198
X18796Y54000
X22098Y49835
X18136Y72796
X24689Y71679
X14021Y63906
X15189Y86157
X2591Y63906
X25502Y85496
X23216Y54610
X15596Y53188
X34595Y75235
X47803Y81280
X38252Y66345
X47498Y59309
X40234Y64313
X35001Y61519
X14224Y57201
X26213Y72542
X17120Y84277
X40589Y88138
X40284Y75794
X43485Y80772
T6
X40792Y79654
X17221Y78232
X19304Y43790
X20447Y44298
X17780Y85395
X26162Y65227
X23571Y70714
X17272Y68682
X9093Y86157
X17170Y79502
X19964Y80213
X7976Y83718
X13564Y74270
X4267Y82804
X5537Y80112
X12243Y73406
X33528Y73863
X30963Y76175
X32766Y83160
X43485Y89357
X45060Y85903
X53340Y78588
X50952Y89357
X34595Y86258
X53289Y79299
X31598Y79400
X29464Y77267
X40996Y83515
X46177Y86360
X29820Y80315
X28092Y78588
X33884Y84988
X46177Y90272
X33477Y60858
X33477Y69291
X19101Y84277
X21946Y53746
X18593Y63805
X16967Y75184
X16256Y75895
X17678Y81940
X21742Y51714
X23825Y51714
X26162Y54051
X34036Y61824
X42012Y65278
X31801Y76505
X22504Y80772
X22758Y64313
X28753Y88392
X21590Y84226
X28296Y97282
X24079Y84226
X25044Y77826
X14732Y55016
X18542Y62890
X18745Y58420
X16104Y54254
X16307Y81991
X20371Y78130
X27076Y78232
X48057Y60223
X39675Y68478
X36398Y68224
X30785Y54712
X27076Y58420
X27076Y64313
X27635Y67310
X27635Y71882
X27127Y74422
X22962Y77826
X28194Y71374
X23266Y82194
X20828Y79756
X20168Y75997
X25959Y67462
X18085Y70714
X29667Y69088
X13106Y74930
X21742Y52426
X15799Y77724
X17882Y63856
X17170Y77165
X27178Y73711
X20218Y76708
X4115Y70206
X21590Y76606
X22352Y77368
X19558Y69444
X-254Y53188
X17120Y81483
X13208Y83261
X6756Y67107
X-457Y80162
X21031Y67513
X-254Y50648
X17424Y67716
X-203Y55524
X29210Y81890
X39726Y63754
X32563Y66294
X26721Y68224
X27838Y48412
X50952Y91897
X3912Y42926
X44094Y68936
X36017Y78334
X39878Y65354
X29870Y78334
X40437Y78130
X34036Y63856
X29159Y63856
X21133Y63856
X18390Y66497
X16510Y74625
X18694Y76251
X18796Y77165
X31242Y93929
X16510Y95910
X39522Y86614
X27635Y79654
X16713Y77724
M30