G04 EAGLE Gerber RS-274X export*
G75*
%MOMM*%
%FSLAX34Y34*%
%LPD*%
%INSolderpaste Top*%
%IPPOS*%
%AMOC8*
5,1,8,0,0,1.08239X$1,22.5*%
G01*
%ADD10R,1.300000X1.500000*%
%ADD11R,1.500000X1.300000*%
%ADD12R,1.193800X0.304800*%
%ADD13R,0.304800X1.193800*%
%ADD14R,1.100000X1.900000*%
%ADD15R,0.838200X1.600200*%
%ADD16R,3.098800X1.600200*%
%ADD17R,1.500000X0.400000*%
%ADD18R,0.500000X0.350000*%
%ADD19R,1.200000X0.600000*%
%ADD20R,1.000000X1.100000*%
%ADD21R,1.700000X3.700000*%
%ADD22R,1.600000X1.803000*%
%ADD23R,1.100000X1.000000*%
%ADD24R,0.350000X1.400000*%
%ADD25R,1.800000X1.900000*%
%ADD26R,1.900000X1.900000*%
%ADD27R,0.961200X0.909856*%
%ADD28R,0.959838X0.909838*%
%ADD29R,0.959981X0.910159*%
%ADD30R,0.961181X0.911131*%
%ADD31R,0.790000X0.260000*%
%ADD32R,0.260000X0.790000*%


D10*
X250800Y660400D03*
X231800Y660400D03*
X161900Y660400D03*
X142900Y660400D03*
D11*
X330200Y752500D03*
X330200Y771500D03*
X139700Y866800D03*
X139700Y885800D03*
X279400Y854100D03*
X279400Y873100D03*
X393700Y790600D03*
X393700Y809600D03*
D10*
X250800Y685800D03*
X231800Y685800D03*
X111100Y736600D03*
X92100Y736600D03*
X161900Y685800D03*
X142900Y685800D03*
X60300Y812800D03*
X41300Y812800D03*
X60300Y762000D03*
X41300Y762000D03*
D12*
X145700Y812200D03*
X145700Y807200D03*
X145700Y802200D03*
X145700Y797200D03*
X145700Y792200D03*
X145700Y787200D03*
X145700Y782200D03*
X145700Y777200D03*
X145700Y772200D03*
X145700Y767200D03*
X145700Y762200D03*
X145700Y757200D03*
X145700Y752200D03*
X145700Y747200D03*
X145700Y742200D03*
X145700Y737200D03*
D13*
X165700Y717200D03*
X170700Y717200D03*
X175700Y717200D03*
X180700Y717200D03*
X185700Y717200D03*
X190700Y717200D03*
X195700Y717200D03*
X200700Y717200D03*
X205700Y717200D03*
X210700Y717200D03*
X215700Y717200D03*
X220700Y717200D03*
X225700Y717200D03*
X230700Y717200D03*
X235700Y717200D03*
X240700Y717200D03*
D12*
X260700Y737200D03*
X260700Y742200D03*
X260700Y747200D03*
X260700Y752200D03*
X260700Y757200D03*
X260700Y762200D03*
X260700Y767200D03*
X260700Y772200D03*
X260700Y777200D03*
X260700Y782200D03*
X260700Y787200D03*
X260700Y792200D03*
X260700Y797200D03*
X260700Y802200D03*
X260700Y807200D03*
X260700Y812200D03*
D13*
X240700Y832200D03*
X235700Y832200D03*
X230700Y832200D03*
X225700Y832200D03*
X220700Y832200D03*
X215700Y832200D03*
X210700Y832200D03*
X205700Y832200D03*
X200700Y832200D03*
X195700Y832200D03*
X190700Y832200D03*
X185700Y832200D03*
X180700Y832200D03*
X175700Y832200D03*
X170700Y832200D03*
X165700Y832200D03*
D14*
X113100Y768900D03*
X90100Y805900D03*
X90100Y768900D03*
X113100Y805900D03*
D15*
X-10414Y641096D03*
X12700Y641096D03*
X35814Y641096D03*
D16*
X12700Y705104D03*
D10*
X161900Y584200D03*
X142900Y584200D03*
D17*
X128850Y550250D03*
X128850Y543750D03*
X128850Y537250D03*
X128850Y530750D03*
X128850Y524250D03*
X128850Y517750D03*
X128850Y511250D03*
X128850Y504750D03*
X128850Y498250D03*
X128850Y491750D03*
X128850Y485250D03*
X128850Y478750D03*
X128850Y472250D03*
X128850Y465750D03*
X201350Y465750D03*
X201350Y472250D03*
X201350Y478750D03*
X201350Y485250D03*
X201350Y491750D03*
X201350Y498250D03*
X201350Y504750D03*
X201350Y511250D03*
X201350Y517750D03*
X201350Y524250D03*
X201350Y530750D03*
X201350Y537250D03*
X201350Y543750D03*
X201350Y550250D03*
D10*
X111100Y558800D03*
X92100Y558800D03*
X231800Y533400D03*
X250800Y533400D03*
X231800Y584200D03*
X250800Y584200D03*
X108560Y535940D03*
X89560Y535940D03*
D18*
X427100Y771450D03*
X427100Y777950D03*
X427100Y784450D03*
X427100Y764950D03*
X411100Y777950D03*
X411100Y771450D03*
X411100Y764950D03*
X411100Y784450D03*
D19*
X467300Y812800D03*
X467300Y800100D03*
X467300Y787400D03*
X467300Y774700D03*
X467300Y762000D03*
X467300Y749300D03*
X467300Y736600D03*
X523300Y736600D03*
X523300Y749300D03*
X523300Y762000D03*
X523300Y774700D03*
X523300Y787400D03*
X523300Y800100D03*
X523300Y812800D03*
D11*
X546100Y790600D03*
X546100Y809600D03*
X419100Y873100D03*
X419100Y854100D03*
D20*
X546100Y757800D03*
X546100Y740800D03*
D21*
X180050Y422910D03*
X239050Y422910D03*
D22*
X-14220Y596900D03*
X14220Y596900D03*
X-14220Y571500D03*
X14220Y571500D03*
X-14220Y546100D03*
X14220Y546100D03*
X-14220Y495300D03*
X14220Y495300D03*
X-14220Y520700D03*
X14220Y520700D03*
X-14220Y469900D03*
X14220Y469900D03*
D23*
X59300Y596900D03*
X42300Y596900D03*
X59300Y571500D03*
X42300Y571500D03*
X59300Y546100D03*
X42300Y546100D03*
X59300Y495300D03*
X42300Y495300D03*
X59300Y520700D03*
X42300Y520700D03*
X59300Y469900D03*
X42300Y469900D03*
D24*
X39070Y440520D03*
X65070Y440520D03*
X45570Y440520D03*
X52070Y440520D03*
X58570Y440520D03*
D25*
X12070Y414020D03*
X92070Y414020D03*
D26*
X39370Y414020D03*
X64770Y414020D03*
D11*
X228600Y484480D03*
X228600Y465480D03*
D23*
X160900Y411480D03*
X143900Y411480D03*
D27*
X360924Y648471D03*
D28*
X373131Y648471D03*
D29*
X373130Y636769D03*
D30*
X360924Y636764D03*
D31*
X347330Y655120D03*
X347330Y650120D03*
X347330Y645120D03*
X347330Y640120D03*
X347330Y635120D03*
X347330Y630120D03*
D32*
X354530Y622920D03*
X359530Y622920D03*
X364530Y622920D03*
X369530Y622920D03*
X374530Y622920D03*
X379530Y622920D03*
D31*
X386730Y630120D03*
X386730Y635120D03*
X386730Y640120D03*
X386730Y645120D03*
X386730Y650120D03*
X386730Y655120D03*
D32*
X379530Y662320D03*
X374530Y662320D03*
X369530Y662320D03*
X364530Y662320D03*
X359530Y662320D03*
X354530Y662320D03*
D10*
X391770Y604520D03*
X372770Y604520D03*
D11*
X406400Y631850D03*
X406400Y650850D03*
X427990Y650850D03*
X427990Y631850D03*
D10*
X328320Y604520D03*
X347320Y604520D03*
M02*
