G04 EAGLE Gerber RS-274X export*
G75*
%MOMM*%
%FSLAX34Y34*%
%LPD*%
%INSolderpaste Top*%
%IPPOS*%
%AMOC8*
5,1,8,0,0,1.08239X$1,22.5*%
G01*
%ADD10R,1.300000X1.500000*%
%ADD11R,1.500000X1.300000*%
%ADD12R,1.193800X0.304800*%
%ADD13R,0.304800X1.193800*%
%ADD14R,1.100000X1.900000*%
%ADD15R,0.838200X1.600200*%
%ADD16R,3.098800X1.600200*%
%ADD17R,1.500000X0.400000*%
%ADD18R,0.260000X0.790000*%
%ADD19R,0.790000X0.260000*%
%ADD20R,0.500000X0.350000*%
%ADD21R,1.200000X0.600000*%
%ADD22R,1.000000X1.100000*%
%ADD23R,1.700000X3.700000*%
%ADD24R,1.600000X1.803000*%
%ADD25R,1.100000X1.000000*%
%ADD26R,0.350000X1.400000*%
%ADD27R,1.800000X1.900000*%
%ADD28R,1.900000X1.900000*%

G36*
X367027Y636307D02*
X367027Y636307D01*
X367022Y636314D01*
X367029Y636320D01*
X367029Y645620D01*
X366993Y645667D01*
X366986Y645662D01*
X366980Y645669D01*
X357180Y645669D01*
X357133Y645633D01*
X357138Y645626D01*
X357131Y645620D01*
X357131Y636320D01*
X357167Y636273D01*
X357174Y636278D01*
X357180Y636271D01*
X366980Y636271D01*
X367027Y636307D01*
G37*
G36*
X379467Y636307D02*
X379467Y636307D01*
X379462Y636314D01*
X379469Y636320D01*
X379469Y645620D01*
X379433Y645667D01*
X379426Y645662D01*
X379420Y645669D01*
X369620Y645669D01*
X369573Y645633D01*
X369578Y645626D01*
X369571Y645620D01*
X369571Y636320D01*
X369607Y636273D01*
X369614Y636278D01*
X369620Y636271D01*
X379420Y636271D01*
X379467Y636307D01*
G37*
G36*
X367027Y624367D02*
X367027Y624367D01*
X367022Y624374D01*
X367029Y624380D01*
X367029Y633680D01*
X366993Y633727D01*
X366986Y633722D01*
X366980Y633729D01*
X357180Y633729D01*
X357133Y633693D01*
X357138Y633686D01*
X357131Y633680D01*
X357131Y624380D01*
X357167Y624333D01*
X357174Y624338D01*
X357180Y624331D01*
X366980Y624331D01*
X367027Y624367D01*
G37*
G36*
X379467Y624367D02*
X379467Y624367D01*
X379462Y624374D01*
X379469Y624380D01*
X379469Y633680D01*
X379433Y633727D01*
X379426Y633722D01*
X379420Y633729D01*
X369620Y633729D01*
X369573Y633693D01*
X369578Y633686D01*
X369571Y633680D01*
X369571Y624380D01*
X369607Y624333D01*
X369614Y624338D01*
X369620Y624331D01*
X379420Y624331D01*
X379467Y624367D01*
G37*
D10*
X250800Y660400D03*
X231800Y660400D03*
X161900Y660400D03*
X142900Y660400D03*
D11*
X330200Y752500D03*
X330200Y771500D03*
X139700Y866800D03*
X139700Y885800D03*
X279400Y854100D03*
X279400Y873100D03*
X393700Y790600D03*
X393700Y809600D03*
D10*
X250800Y685800D03*
X231800Y685800D03*
X111100Y736600D03*
X92100Y736600D03*
X161900Y685800D03*
X142900Y685800D03*
X60300Y812800D03*
X41300Y812800D03*
X60300Y762000D03*
X41300Y762000D03*
D12*
X145700Y812200D03*
X145700Y807200D03*
X145700Y802200D03*
X145700Y797200D03*
X145700Y792200D03*
X145700Y787200D03*
X145700Y782200D03*
X145700Y777200D03*
X145700Y772200D03*
X145700Y767200D03*
X145700Y762200D03*
X145700Y757200D03*
X145700Y752200D03*
X145700Y747200D03*
X145700Y742200D03*
X145700Y737200D03*
D13*
X165700Y717200D03*
X170700Y717200D03*
X175700Y717200D03*
X180700Y717200D03*
X185700Y717200D03*
X190700Y717200D03*
X195700Y717200D03*
X200700Y717200D03*
X205700Y717200D03*
X210700Y717200D03*
X215700Y717200D03*
X220700Y717200D03*
X225700Y717200D03*
X230700Y717200D03*
X235700Y717200D03*
X240700Y717200D03*
D12*
X260700Y737200D03*
X260700Y742200D03*
X260700Y747200D03*
X260700Y752200D03*
X260700Y757200D03*
X260700Y762200D03*
X260700Y767200D03*
X260700Y772200D03*
X260700Y777200D03*
X260700Y782200D03*
X260700Y787200D03*
X260700Y792200D03*
X260700Y797200D03*
X260700Y802200D03*
X260700Y807200D03*
X260700Y812200D03*
D13*
X240700Y832200D03*
X235700Y832200D03*
X230700Y832200D03*
X225700Y832200D03*
X220700Y832200D03*
X215700Y832200D03*
X210700Y832200D03*
X205700Y832200D03*
X200700Y832200D03*
X195700Y832200D03*
X190700Y832200D03*
X185700Y832200D03*
X180700Y832200D03*
X175700Y832200D03*
X170700Y832200D03*
X165700Y832200D03*
D14*
X113100Y768900D03*
X90100Y805900D03*
X90100Y768900D03*
X113100Y805900D03*
D15*
X-10414Y641096D03*
X12700Y641096D03*
X35814Y641096D03*
D16*
X12700Y705104D03*
D10*
X161900Y584200D03*
X142900Y584200D03*
D17*
X128850Y550250D03*
X128850Y543750D03*
X128850Y537250D03*
X128850Y530750D03*
X128850Y524250D03*
X128850Y517750D03*
X128850Y511250D03*
X128850Y504750D03*
X128850Y498250D03*
X128850Y491750D03*
X128850Y485250D03*
X128850Y478750D03*
X128850Y472250D03*
X128850Y465750D03*
X201350Y465750D03*
X201350Y472250D03*
X201350Y478750D03*
X201350Y485250D03*
X201350Y491750D03*
X201350Y498250D03*
X201350Y504750D03*
X201350Y511250D03*
X201350Y517750D03*
X201350Y524250D03*
X201350Y530750D03*
X201350Y537250D03*
X201350Y543750D03*
X201350Y550250D03*
D10*
X111100Y558800D03*
X92100Y558800D03*
X231800Y533400D03*
X250800Y533400D03*
X231800Y584200D03*
X250800Y584200D03*
X108560Y535940D03*
X89560Y535940D03*
D18*
X355800Y615300D03*
X360800Y615300D03*
X365800Y615300D03*
X370800Y615300D03*
X375800Y615300D03*
X380800Y615300D03*
D19*
X388000Y622500D03*
X388000Y627500D03*
X388000Y632500D03*
X388000Y637500D03*
X388000Y642500D03*
X388000Y647500D03*
D18*
X380800Y654700D03*
X375800Y654700D03*
X370800Y654700D03*
X365800Y654700D03*
X360800Y654700D03*
X355800Y654700D03*
D19*
X348600Y647500D03*
X348600Y642500D03*
X348600Y637500D03*
X348600Y632500D03*
X348600Y627500D03*
X348600Y622500D03*
D20*
X427100Y771450D03*
X427100Y777950D03*
X427100Y784450D03*
X427100Y764950D03*
X411100Y777950D03*
X411100Y771450D03*
X411100Y764950D03*
X411100Y784450D03*
D21*
X467300Y812800D03*
X467300Y800100D03*
X467300Y787400D03*
X467300Y774700D03*
X467300Y762000D03*
X467300Y749300D03*
X467300Y736600D03*
X523300Y736600D03*
X523300Y749300D03*
X523300Y762000D03*
X523300Y774700D03*
X523300Y787400D03*
X523300Y800100D03*
X523300Y812800D03*
D11*
X546100Y790600D03*
X546100Y809600D03*
X419100Y873100D03*
X419100Y854100D03*
D22*
X546100Y757800D03*
X546100Y740800D03*
D23*
X180050Y422910D03*
X239050Y422910D03*
D24*
X-14220Y596900D03*
X14220Y596900D03*
X-14220Y571500D03*
X14220Y571500D03*
X-14220Y546100D03*
X14220Y546100D03*
X-14220Y495300D03*
X14220Y495300D03*
X-14220Y520700D03*
X14220Y520700D03*
X-14220Y469900D03*
X14220Y469900D03*
D25*
X59300Y596900D03*
X42300Y596900D03*
X59300Y571500D03*
X42300Y571500D03*
X59300Y546100D03*
X42300Y546100D03*
X59300Y495300D03*
X42300Y495300D03*
X59300Y520700D03*
X42300Y520700D03*
X59300Y469900D03*
X42300Y469900D03*
D26*
X39070Y440520D03*
X65070Y440520D03*
X45570Y440520D03*
X52070Y440520D03*
X58570Y440520D03*
D27*
X12070Y414020D03*
X92070Y414020D03*
D28*
X39370Y414020D03*
X64770Y414020D03*
D11*
X228600Y484480D03*
X228600Y465480D03*
D25*
X160900Y411480D03*
X143900Y411480D03*
M02*
