G04 EAGLE Gerber RS-274X export*
G75*
%MOMM*%
%FSLAX34Y34*%
%LPD*%
%INSolderpaste Bottom*%
%IPPOS*%
%AMOC8*
5,1,8,0,0,1.08239X$1,22.5*%
G01*
%ADD10R,1.500000X1.300000*%
%ADD11R,1.000000X1.100000*%
%ADD12R,0.800000X1.500000*%
%ADD13R,1.400000X1.900000*%
%ADD14R,1.800000X1.400000*%
%ADD15R,1.300000X1.500000*%
%ADD16R,0.558800X1.270000*%
%ADD17R,1.270000X0.558800*%
%ADD18R,1.900000X1.100000*%
%ADD19R,1.100000X1.000000*%
%ADD20R,1.800000X1.700000*%


D10*
X184150Y784250D03*
X184150Y803250D03*
D11*
X241300Y867800D03*
X241300Y884800D03*
X215900Y867800D03*
X215900Y884800D03*
X177800Y884800D03*
X177800Y867800D03*
D10*
X38100Y638200D03*
X38100Y657200D03*
X63500Y638200D03*
X63500Y657200D03*
X12700Y638200D03*
X12700Y657200D03*
X-12700Y638200D03*
X-12700Y657200D03*
X-38100Y638200D03*
X-38100Y657200D03*
D12*
X160940Y456680D03*
X171940Y460680D03*
X182940Y456680D03*
X193940Y454680D03*
X204940Y456680D03*
X215940Y454680D03*
X226940Y456680D03*
X237940Y456680D03*
D13*
X245840Y428180D03*
X114340Y418180D03*
D14*
X229840Y559680D03*
X172840Y559680D03*
D15*
X339700Y596900D03*
X320700Y596900D03*
X413410Y635000D03*
X432410Y635000D03*
X415900Y673100D03*
X396900Y673100D03*
D10*
X317500Y676300D03*
X317500Y695300D03*
D16*
X409000Y769874D03*
X401000Y769874D03*
X393000Y769874D03*
X385000Y769874D03*
X377000Y769874D03*
X369000Y769874D03*
X361000Y769874D03*
X353000Y769874D03*
D17*
X338074Y784800D03*
X338074Y792800D03*
X338074Y800800D03*
X338074Y808800D03*
X338074Y816800D03*
X338074Y824800D03*
X338074Y832800D03*
X338074Y840800D03*
D16*
X353000Y855726D03*
X361000Y855726D03*
X369000Y855726D03*
X377000Y855726D03*
X385000Y855726D03*
X393000Y855726D03*
X401000Y855726D03*
X409000Y855726D03*
D17*
X423926Y840800D03*
X423926Y832800D03*
X423926Y824800D03*
X423926Y816800D03*
X423926Y808800D03*
X423926Y800800D03*
X423926Y792800D03*
X423926Y784800D03*
D18*
X362500Y748100D03*
X399500Y725100D03*
X362500Y725100D03*
X399500Y748100D03*
D15*
X396900Y698500D03*
X415900Y698500D03*
X371450Y698500D03*
X352450Y698500D03*
D10*
X393700Y892200D03*
X393700Y911200D03*
D15*
X365100Y876300D03*
X346100Y876300D03*
X365100Y901700D03*
X346100Y901700D03*
X365100Y927100D03*
X346100Y927100D03*
D19*
X486800Y863600D03*
X503800Y863600D03*
X486800Y838200D03*
X503800Y838200D03*
D10*
X431800Y746100D03*
X431800Y727100D03*
D20*
X-39550Y444500D03*
X1450Y444500D03*
D10*
X444500Y789280D03*
X444500Y770280D03*
X467360Y789280D03*
X467360Y770280D03*
M02*
