M48
;GenerationSoftware,Autodesk,EAGLE,9.3.2*%
;CreationDate,2019-04-15T12:49:44Z*%
FMAT,2
ICI,OFF
METRIC,TZ,000.000
T6C0.203
T5C0.254
T4C0.300
T3C0.350
T2C0.900
T1C1.016
%
G90
M71
T1
X39370Y99060
X46990Y96520
X44450Y96520
X41910Y96520
X39370Y96520
X46990Y99060
X44450Y99060
X41910Y99060
X31750Y99060
X29210Y99060
X26670Y99060
X35560Y44450
X38100Y44450
X40640Y44450
X43180Y44450
X45720Y44450
X48260Y44450
X35560Y41910
X15240Y91440
X38100Y41910
X40640Y41910
X43180Y41910
X45720Y41910
X48260Y41910
X26670Y96520
X29210Y96520
X31750Y96520
X8255Y96520
X8255Y99060
X1270Y73660
X27940Y91440
X25400Y91440
X22860Y91440
X38100Y49530
X20320Y91440
X17780Y91440
X1270Y76200
X12700Y91440
X10160Y91440
X31750Y53340
X31750Y50800
X31750Y48260
X31750Y45720
X29210Y53340
X1270Y78740
X46482Y67183
X46482Y64643
X46482Y62103
X29210Y50800
X29210Y48260
X29210Y45720
X43180Y54610
X40640Y54610
X38100Y54610
X35560Y54610
X48260Y57150
X45720Y57150
X43180Y57150
X40640Y57150
X38100Y57150
X35560Y57150
X20320Y96520
X17780Y96520
X15240Y96520
X12700Y96520
X53340Y86360
X53340Y88900
X53340Y91440
X53340Y93980
X53340Y96520
X53340Y99060
X1270Y82550
X-1270Y82550
X-3810Y82550
X1270Y85090
X-1270Y85090
X-3810Y85090
X1270Y87630
X-1270Y87630
X-3810Y87630
X20320Y99060
X17780Y99060
X15240Y99060
X12700Y99060
X-1270Y78740
X-1270Y76200
X-1270Y73660
X-3810Y78740
X-3810Y76200
X-3810Y73660
X3810Y99060
X3810Y96520
X3810Y93980
X1270Y99060
X1270Y96520
X1270Y93980
X-1270Y99060
X-1270Y96520
X-1270Y93980
X-3810Y99060
X-3810Y96520
X-3810Y93980
X45720Y54610
X48260Y54610
X35560Y52070
X38100Y52070
X40640Y52070
X43180Y52070
X45720Y52070
X48260Y52070
X35560Y49530
X40640Y49530
X43180Y49530
X45720Y49530
X48260Y49530
X35560Y46990
X38100Y46990
X40640Y46990
X43180Y46990
X45720Y46990
X48260Y46990
T2
X53340Y62230
X50800Y62230
X50800Y67310
X53340Y67310
X53340Y64770
X50800Y64770
T3
X24511Y63119
X11430Y51105
X21522Y59241
X40513Y66929
X21463Y85344
X16205Y43485
X16177Y57148
T4
X36830Y96139
X37950Y94234
X42418Y94361
X44958Y94107
X49911Y73708
X29083Y67437
X29972Y68453
X44196Y66548
X43688Y94107
X25654Y85596
T5
X39319Y83617
X44298Y73711
X40843Y75844
X42316Y68631
X17323Y79400
X17069Y84379
X39421Y94386
X38515Y66421
X2591Y63906
X15596Y53188
X16154Y54712
X14376Y69799
X39726Y62078
X18644Y59893
X45618Y77927
X50038Y81178
X41300Y84328
X43739Y84176
X29870Y78435
X19761Y81686
X27889Y84328
X11176Y72441
X53238Y80620
X-1118Y62738
X37389Y88798
X38659Y62433
X11481Y45466
X23063Y60096
X24994Y60096
X32106Y58471
X25578Y48463
X1321Y66802
X8585Y67970
X18364Y48616
T6
X46634Y72746
X44602Y84328
X46634Y84328
X46076Y87579
X29362Y80518
X27381Y78537
X44602Y82347
X46076Y83820
X28092Y56591
X28092Y64465
X28092Y74168
X18288Y58776
X22301Y70307
X22352Y84226
X21844Y82144
X23012Y69748
X21590Y68631
X13919Y60960
X12751Y58826
X12751Y55677
X23622Y84633
X24740Y81534
X21387Y79654
X13919Y64872
X10211Y61163
X10211Y52426
X20625Y82194
X13462Y57099
X13818Y59588
X25552Y60604
X27127Y65430
X27127Y76149
X44298Y63602
X41808Y66091
X44298Y64313
X37440Y67056
X22555Y82194
X36220Y61214
X23673Y81788
X31445Y71730
X10617Y94844
X15748Y72542
X18034Y93167
X16307Y90272
X16307Y74270
X26467Y51664
X16764Y75794
X25349Y51232
X15443Y71476
X-254Y50648
X14935Y70307
X-102Y66497
X17983Y53696
X18898Y52781
X30378Y83058
X1473Y44094
X16764Y80010
X19202Y75590
X33833Y85192
X-51Y67208
X14326Y70764
X11227Y93574
X15850Y77775
X16764Y76860
X19050Y74574
X35204Y94894
X40589Y90780
X40437Y98247
X40691Y86766
X40691Y80620
X18186Y82194
X19609Y80772
X22200Y77165
X26213Y73152
X21082Y76505
X28397Y83769
X45161Y88798
X17221Y78232
X15545Y42062
X8992Y51613
X18593Y85954
X2896Y72288
X10160Y67869
X15596Y74270
X16307Y73558
X32766Y83160
X50546Y82194
X51003Y80823
X49378Y65634
X53696Y76149
X51460Y78080
X47650Y83312
M30